{
	"asset":{
		"generator":"Khronos glTF Blender I/O v3.5.30",
		"version":"2.0"
	},
	"extensionsUsed":[
		"KHR_materials_specular",
		"KHR_materials_ior"
	],
	"scene":0,
	"scenes":[
		{
			"name":"Scene",
			"nodes":[
				0
			]
		}
	],
	"nodes":[
		{
			"mesh":0,
			"name":"Plane",
			"translation":[
				-0.48157402873039246,
				0.037140484899282455,
				-0.5255135893821716
			]
		}
	],
	"materials":[
		{
			"doubleSided":true,
			"extensions":{
				"KHR_materials_specular":{
					"specularColorFactor":[
						0.2809439551017176,
						0.2809439551017176,
						0.2809439551017176
					]
				},
				"KHR_materials_ior":{
					"ior":1.4500000476837158
				}
			},
			"name":"Material",
			"pbrMetallicRoughness":{
				"baseColorFactor":[
					0.4672020375728607,
					0.27241089940071106,
					0.1375449299812317,
					1
				],
				"metallicFactor":0,
				"roughnessFactor":0.5
			}
		}
	],
	"meshes":[
		{
			"name":"Plane.001",
			"primitives":[
				{
					"attributes":{
						"POSITION":0,
						"NORMAL":1
					},
					"indices":2,
					"material":0
				}
			]
		}
	],
	"accessors":[
		{
			"bufferView":0,
			"componentType":5126,
			"count":1234,
			"max":[
				1.257515788078308,
				1.7045456171035767,
				3.433948516845703
			],
			"min":[
				-1.257515788078308,
				-3.129058599472046,
				-3.378419876098633
			],
			"type":"VEC3"
		},
		{
			"bufferView":1,
			"componentType":5126,
			"count":1234,
			"type":"VEC3"
		},
		{
			"bufferView":2,
			"componentType":5123,
			"count":1878,
			"type":"SCALAR"
		}
	],
	"bufferViews":[
		{
			"buffer":0,
			"byteLength":14808,
			"byteOffset":0,
			"target":34962
		},
		{
			"buffer":0,
			"byteLength":14808,
			"byteOffset":14808,
			"target":34962
		},
		{
			"buffer":0,
			"byteLength":3756,
			"byteOffset":29616,
			"target":34963
		}
	],
	"buffers":[
		{
			"byteLength":33372,
			"uri":"capybara.bin"
		}
	]
}
